<svg width="24" height="24" viewBox="0 0 24 24" fill="none" xmlns="http://www.w3.org/2000/svg">
<g id="&#240;&#159;&#166;&#134; icon &#34;clock&#34;">
<path id="Vector" d="M11.6275 0C5.22073 0 0 5.22073 0 11.6275C0 18.0342 5.22073 23.2549 11.6275 23.2549C18.0342 23.2549 23.2549 18.0342 23.2549 11.6275C23.2549 5.22073 18.0342 0 11.6275 0ZM16.6854 15.7785C16.5226 16.0575 16.2319 16.2087 15.9296 16.2087C15.7785 16.2087 15.6273 16.1738 15.4878 16.0808L11.8833 13.9297C10.9879 13.3948 10.3252 12.2205 10.3252 11.1856V6.41835C10.3252 5.94163 10.7205 5.54629 11.1972 5.54629C11.674 5.54629 12.0693 5.94163 12.0693 6.41835V11.1856C12.0693 11.6042 12.4181 12.2205 12.7786 12.4297L16.3831 14.5808C16.8017 14.825 16.9412 15.3599 16.6854 15.7785Z" fill="white"/>
</g>
</svg>
