<svg width="31" height="23" viewBox="0 0 31 23" fill="none" xmlns="http://www.w3.org/2000/svg">
<g id="&#240;&#159;&#166;&#134; icon &#34;laptop&#34;">
<path id="Vector" d="M5.01995 0.00760154C4.63225 0.137932 4.29786 0.391581 4.06787 0.72981C3.83787 1.06804 3.72491 1.47225 3.74623 1.88072V14.9925H0V20.6119C0 21.6608 0.82417 22.485 1.87311 22.485H28.1342C29.1831 22.485 30.0073 21.6608 30.0073 20.6119V14.9925H26.2611V1.88072C26.2611 1.38394 26.0637 0.907501 25.7124 0.556224C25.3612 0.204947 24.8847 0.00760154 24.3879 0.00760154H5.65681C5.54465 -0.00253385 5.4318 -0.00253385 5.31964 0.00760154C5.24479 0.00310201 5.16973 0.00310201 5.09487 0.00760154L5.01995 0.00760154ZM7.49246 3.75383H22.4774V14.9925H18.7311V18.7387H11.2387V14.9925H7.49246V3.75383Z" fill="white"/>
</g>
</svg>
